<svg width="18" height="16" viewBox="0 0 18 16" fill="none" xmlns="http://www.w3.org/2000/svg">
<path fill-rule="evenodd" clip-rule="evenodd" d="M11.8077 2.89035C12.4215 2.89136 13.0219 3.06965 13.5369 3.40377C14.052 3.7379 14.4596 4.21367 14.711 4.77396C14.9624 5.33424 15.0467 5.9552 14.954 6.56229C14.8612 7.16939 14.5953 7.73679 14.1882 8.19636C13.6037 8.85563 8.61946 13.5237 8.61946 13.5237C8.61946 13.5237 3.62461 8.85562 3.04011 8.18572C2.52451 7.60599 2.24072 6.85637 2.24306 6.08034C2.24306 5.2343 2.57894 4.4229 3.17684 3.82466C3.77474 3.22641 4.58569 2.89035 5.43126 2.89035C6.27682 2.89035 7.08777 3.22641 7.68568 3.82466C8.28358 4.4229 8.61946 5.2343 8.61946 6.08034C8.61946 5.2343 8.95534 4.4229 9.55325 3.82466C10.1512 3.22641 10.9621 2.89035 11.8077 2.89035ZM11.8077 0.763681C10.6576 0.761597 9.53826 1.13492 8.61946 1.82701C7.56698 1.04924 6.2647 0.687348 4.9621 0.810669C3.65949 0.933989 2.44811 1.53388 1.5601 2.49536C0.672086 3.45684 0.169838 4.71234 0.149564 6.02135C0.129291 7.33035 0.592472 8.60078 1.45029 9.58933C2.04754 10.2741 5.97858 13.9575 7.16884 15.0697C7.56257 15.4381 8.08145 15.6431 8.6205 15.6431C9.15955 15.6431 9.67849 15.4381 10.0722 15.0697C11.2582 13.9586 15.1734 10.2847 15.7781 9.60101C16.4549 8.83469 16.8965 7.88933 17.0499 6.87823C17.2033 5.86714 17.062 4.83323 16.6429 3.90046C16.2238 2.96769 15.5448 2.17563 14.6872 1.61927C13.8296 1.0629 12.8298 0.765854 11.8077 0.763681Z" fill="#33A0FF"/>
</svg>
